# This file uses centimeters as units for non-parametric coordinates.

mtllib CandyWrap.mtl
g default
v -7.000000 -0.750000 2.000000
v 7.000000 -0.750000 2.000000
v -7.000000 0.750000 2.000000
v 7.000000 0.750000 2.000000
v -7.000000 0.750000 -2.000000
v 7.000000 0.750000 -2.000000
v -7.000000 -0.750000 -2.000000
v 7.000000 -0.750000 -2.000000
v 0.000000 0.000000 2.300000
v 0.000000 -0.750000 2.000000
v 7.000000 0.000000 2.300000
v 0.000000 0.750000 2.000000
v -7.000000 0.000000 2.300000
v 0.000000 0.000000 -2.300000
v 0.000000 0.750000 -2.000000
v 7.000000 0.000000 -2.300000
v 0.000000 -0.750000 -2.000000
v -7.000000 0.000000 -2.300000
v -3.500000 -0.375000 2.250000
v -7.000000 -0.375000 2.250000
v -3.500000 -0.750000 2.000000
v 0.000000 -0.375000 2.250000
v -3.500000 0.000000 2.300000
v -3.500000 0.375000 -2.250000
v -7.000000 0.375000 -2.250000
v -3.500000 0.750000 -2.000000
v 0.000000 0.375000 -2.250000
v -3.500000 0.000000 -2.300000
v 3.500000 -0.375000 2.250000
v 3.500000 -0.750000 2.000000
v 7.000000 -0.375000 2.250000
v 3.500000 0.000000 2.300000
v 3.500000 0.375000 2.250000
v 7.000000 0.375000 2.250000
v 3.500000 0.750000 2.000000
v 0.000000 0.375000 2.250000
v -3.500000 0.375000 2.250000
v -3.500000 0.750000 2.000000
v -7.000000 0.375000 2.250000
v 3.500000 0.375000 -2.250000
v 3.500000 0.750000 -2.000000
v 7.000000 0.375000 -2.250000
v 3.500000 0.000000 -2.300000
v 3.500000 -0.375000 -2.250000
v 7.000000 -0.375000 -2.250000
v 3.500000 -0.750000 -2.000000
v 0.000000 -0.375000 -2.250000
v -3.500000 -0.375000 -2.250000
v -3.500000 -0.750000 -2.000000
v -7.000000 -0.375000 -2.250000
v 8.000000 -0.191344 -2.000000
v 8.000000 -0.191344 2.000000
v 8.000000 -0.095672 -2.250000
v 8.000000 -0.000000 -2.300000
v 8.000000 0.095672 -2.250000
v 8.000000 0.191344 -2.000000
v 8.000000 0.191344 2.000000
v 8.000000 0.095672 2.250000
v 8.000000 -0.000000 2.300000
v 8.000000 -0.095672 2.250000
v -8.000000 -0.191344 -2.000000
v -8.000000 -0.191344 2.000000
v -8.000000 -0.095672 2.250000
v -8.000000 -0.000000 2.300000
v -8.000000 0.095672 2.250000
v -8.000000 0.191344 2.000000
v -8.000000 0.191344 -2.000000
v -8.000000 0.095672 -2.250000
v -8.000000 -0.000000 -2.300000
v -8.000000 -0.095672 -2.250000
v 8.500000 -0.043448 -2.372961
v 8.500000 -0.043448 2.372961
v 8.500000 -0.021724 -2.669581
v 8.500000 -0.000000 -2.728905
v 8.500000 0.021724 -2.669581
v 8.500000 0.043447 -2.372961
v 8.500000 0.043447 2.372961
v 8.500000 0.021724 2.669581
v 8.500000 -0.000000 2.728905
v 8.500000 -0.021724 2.669581
v -8.500000 -0.043448 -2.372961
v -8.500000 -0.043448 2.372961
v -8.500000 -0.021724 2.669581
v -8.500000 -0.000000 2.728905
v -8.500000 0.021724 2.669581
v -8.500000 0.043447 2.372961
v -8.500000 0.043447 -2.372961
v -8.500000 0.021724 -2.669581
v -8.500000 -0.000000 -2.728905
v -8.500000 -0.021724 -2.669581
vt 0.756766 0.001992
vt 0.758039 0.005468
vt 0.755493 0.005468
vt 0.754221 0.022847
vt 0.759312 0.022847
vt 0.754221 0.300906
vt 0.759312 0.300906
vt 0.755493 0.318285
vt 0.758039 0.318285
vt 0.756766 0.321761
vt 0.767568 0.001992
vt 0.768841 0.005468
vt 0.766295 0.005468
vt 0.765022 0.022847
vt 0.770113 0.022847
vt 0.765022 0.300906
vt 0.770113 0.300906
vt 0.766295 0.318285
vt 0.768841 0.318285
vt 0.767568 0.321761
vt 0.044243 0.910124
vt 0.044243 0.705062
vt 0.278600 0.910124
vt 0.029596 0.910124
vt 0.029596 0.705062
vt 0.278600 0.705062
vt 0.278600 0.968713
vt 0.044243 0.968713
vt 0.029596 0.968713
vt 0.029596 0.500000
vt 0.044243 0.500000
vt 0.293247 0.910124
vt 0.293247 0.705062
vt 0.293247 0.968713
vt 0.300451 0.998008
vt 0.022392 0.998008
vt 0.005013 0.998008
vt 0.044243 0.294938
vt 0.029596 0.294938
vt 0.278600 0.500000
vt 0.293247 0.500000
vt 0.317830 0.998008
vt 0.026666 0.968713
vt 0.001537 0.998008
vt 0.029596 0.089876
vt 0.044243 0.089876
vt 0.278600 0.294938
vt 0.293247 0.294938
vt 0.296177 0.968713
vt 0.321306 0.998008
vt 0.029596 0.031287
vt 0.044243 0.031287
vt 0.278600 0.089876
vt 0.293247 0.089876
vt 0.005013 0.001992
vt 0.022392 0.001992
vt 0.278600 0.031287
vt 0.293247 0.031287
vt 0.026666 0.031287
vt 0.001537 0.001992
vt 0.300451 0.001992
vt 0.317830 0.001992
vt 0.296177 0.031287
vt 0.321306 0.001992
vt 0.370268 0.910124
vt 0.370268 0.705062
vt 0.604625 0.910124
vt 0.355621 0.910124
vt 0.355621 0.705062
vt 0.604625 0.705062
vt 0.604625 0.968713
vt 0.370268 0.968713
vt 0.355621 0.968713
vt 0.355621 0.500000
vt 0.370268 0.500000
vt 0.619272 0.910124
vt 0.619272 0.705062
vt 0.619272 0.968713
vt 0.626476 0.998008
vt 0.348416 0.998008
vt 0.331038 0.998008
vt 0.370268 0.294938
vt 0.355621 0.294938
vt 0.604625 0.500000
vt 0.619272 0.500000
vt 0.643855 0.998008
vt 0.352691 0.968713
vt 0.327562 0.998008
vt 0.355621 0.089876
vt 0.370268 0.089876
vt 0.604625 0.294938
vt 0.619272 0.294938
vt 0.622201 0.968713
vt 0.647331 0.998008
vt 0.355621 0.031287
vt 0.370268 0.031287
vt 0.604625 0.089876
vt 0.619272 0.089876
vt 0.331038 0.001992
vt 0.348416 0.001992
vt 0.604625 0.031287
vt 0.619272 0.031287
vt 0.352691 0.031287
vt 0.327562 0.001992
vt 0.626476 0.001992
vt 0.643855 0.001992
vt 0.622201 0.031287
vt 0.647331 0.001992
vt 0.675378 0.675768
vt 0.675378 0.880830
vt 0.653407 0.880830
vt 0.653407 0.675768
vt 0.697349 0.880830
vt 0.697349 0.675768
vt 0.675378 0.939419
vt 0.669772 0.939419
vt 0.653407 0.470705
vt 0.675378 0.470705
vt 0.680983 0.939419
vt 0.697349 0.470705
vt 0.675378 0.265643
vt 0.653407 0.265643
vt 0.697349 0.265643
vt 0.653407 0.060581
vt 0.675378 0.060581
vt 0.697349 0.060581
vt 0.669772 0.001992
vt 0.675378 0.001992
vt 0.680983 0.001992
vt 0.725785 0.675767
vt 0.725785 0.880830
vt 0.703814 0.880830
vt 0.703814 0.675767
vt 0.747755 0.880830
vt 0.747755 0.675767
vt 0.725785 0.939419
vt 0.720179 0.939419
vt 0.703814 0.470705
vt 0.725785 0.470705
vt 0.731390 0.939419
vt 0.747755 0.470705
vt 0.725785 0.265643
vt 0.703814 0.265643
vt 0.747755 0.265643
vt 0.703814 0.060581
vt 0.725785 0.060581
vt 0.747755 0.060581
vt 0.720179 0.001992
vt 0.725785 0.001992
vt 0.731390 0.001992
vn 0.000000 -0.132164 0.991228
vn -0.004512 0.000000 0.999990
vn -0.037106 -0.406950 0.912696
vn 0.000000 -0.132164 0.991228
vn -0.199081 0.979983 0.000000
vn 0.000000 1.000000 0.000000
vn -0.199081 0.979983 0.000000
vn 0.000000 1.000000 0.000000
vn 0.000000 1.000000 0.000000
vn 0.000000 1.000000 0.000000
vn 0.000000 1.000000 0.000000
vn 0.000000 1.000000 0.000000
vn 0.199081 0.979983 0.000000
vn 0.199081 0.979983 0.000000
vn 0.000000 0.132164 -0.991228
vn -0.004512 0.000000 -0.999990
vn -0.037106 0.406950 -0.912696
vn 0.000000 0.132164 -0.991228
vn -0.199081 -0.979983 0.000000
vn 0.000000 -1.000000 0.000000
vn -0.199081 -0.979983 0.000000
vn 0.000000 -1.000000 0.000000
vn 0.000000 -1.000000 0.000000
vn 0.000000 -1.000000 0.000000
vn 0.000000 -1.000000 0.000000
vn 0.000000 -1.000000 0.000000
vn 0.199081 -0.979983 0.000000
vn 0.199081 -0.979983 0.000000
vn 1.000000 0.000000 0.000000
vn 1.000000 0.000000 0.000000
vn 1.000000 0.000000 0.000000
vn 1.000000 0.000000 0.000000
vn 1.000000 0.000000 0.000000
vn 1.000000 0.000000 0.000000
vn 1.000000 0.000000 0.000000
vn 1.000000 0.000000 0.000000
vn 1.000000 0.000000 0.000000
vn 1.000000 0.000000 0.000000
vn -1.000000 0.000000 0.000000
vn -1.000000 0.000000 0.000000
vn -1.000000 0.000000 0.000000
vn -1.000000 0.000000 0.000000
vn -1.000000 0.000000 0.000000
vn -1.000000 0.000000 0.000000
vn -1.000000 0.000000 0.000000
vn -1.000000 0.000000 0.000000
vn -1.000000 0.000000 0.000000
vn -1.000000 0.000000 0.000000
vn 0.000000 -0.554700 0.832050
vn 0.000000 -0.554700 0.832050
vn 0.000000 -0.554700 0.832050
vn 0.000000 -0.554700 0.832050
vn 0.000000 0.132164 0.991228
vn 0.004512 0.000000 0.999990
vn 0.037106 0.406950 0.912696
vn 0.000000 0.132164 0.991228
vn 0.000000 0.554700 0.832050
vn 0.000000 0.554700 0.832050
vn 0.000000 0.554700 0.832050
vn 0.000000 0.554700 0.832050
vn 0.000000 0.554700 -0.832050
vn 0.000000 0.554700 -0.832050
vn 0.000000 0.554700 -0.832050
vn 0.000000 0.554700 -0.832050
vn 0.000000 -0.132164 -0.991228
vn 0.004512 0.000000 -0.999990
vn 0.037106 -0.406950 -0.912696
vn 0.000000 -0.132164 -0.991228
vn 0.000000 -0.554700 -0.832050
vn 0.000000 -0.554700 -0.832050
vn 0.000000 -0.554700 -0.832050
vn 0.000000 -0.554700 -0.832050
vn -0.042118 -0.579857 0.813629
vn 0.000000 -0.554700 0.832050
vn 0.000000 -0.554700 0.832050
vn 0.000000 -0.554700 0.832050
vn 0.000000 -0.554700 0.832050
vn 0.000000 -0.554700 0.832050
vn 0.000000 -0.554700 0.832050
vn 0.000000 -0.132164 0.991228
vn 0.000000 -0.132164 0.991228
vn 0.000000 -0.132164 0.991228
vn 0.000000 -0.132164 0.991228
vn -0.042118 0.579857 -0.813629
vn 0.000000 0.554700 -0.832050
vn 0.000000 0.554700 -0.832050
vn 0.000000 0.554700 -0.832050
vn 0.000000 0.554700 -0.832050
vn 0.000000 0.554700 -0.832050
vn 0.000000 0.554700 -0.832050
vn 0.000000 0.132164 -0.991228
vn 0.000000 0.132164 -0.991228
vn 0.000000 0.132164 -0.991228
vn 0.000000 0.132164 -0.991228
vn 0.000000 -0.554700 0.832050
vn 0.042118 -0.579857 0.813629
vn 0.037106 -0.406950 0.912696
vn 0.000000 -0.554700 0.832050
vn 0.000000 -0.132164 0.991228
vn 0.000000 -0.132164 0.991228
vn 0.000000 -0.132164 0.991228
vn 0.000000 -0.132164 0.991228
vn 0.000000 -0.132164 0.991228
vn 0.000000 -0.132164 0.991228
vn 0.042118 0.579857 0.813629
vn 0.000000 0.554700 0.832050
vn 0.000000 0.554700 0.832050
vn 0.000000 0.554700 0.832050
vn 0.000000 0.554700 0.832050
vn 0.000000 0.554700 0.832050
vn 0.000000 0.554700 0.832050
vn 0.000000 0.132164 0.991228
vn 0.000000 0.132164 0.991228
vn 0.000000 0.132164 0.991228
vn 0.000000 0.132164 0.991228
vn 0.000000 0.554700 0.832050
vn -0.042118 0.579857 0.813629
vn -0.037106 0.406950 0.912696
vn 0.000000 0.554700 0.832050
vn 0.000000 0.132164 0.991228
vn 0.000000 0.132164 0.991228
vn 0.000000 0.132164 0.991228
vn 0.000000 0.132164 0.991228
vn 0.000000 0.132164 0.991228
vn 0.000000 0.132164 0.991228
vn 0.000000 0.554700 -0.832050
vn 0.042118 0.579857 -0.813629
vn 0.037106 0.406950 -0.912696
vn 0.000000 0.554700 -0.832050
vn 0.000000 0.132164 -0.991228
vn 0.000000 0.132164 -0.991228
vn 0.000000 0.132164 -0.991228
vn 0.000000 0.132164 -0.991228
vn 0.000000 0.132164 -0.991228
vn 0.000000 0.132164 -0.991228
vn 0.042118 -0.579857 -0.813629
vn 0.000000 -0.554700 -0.832050
vn 0.000000 -0.554700 -0.832050
vn 0.000000 -0.554700 -0.832050
vn 0.000000 -0.554700 -0.832050
vn 0.000000 -0.554700 -0.832050
vn 0.000000 -0.554700 -0.832050
vn 0.000000 -0.132164 -0.991228
vn 0.000000 -0.132164 -0.991228
vn 0.000000 -0.132164 -0.991228
vn 0.000000 -0.132164 -0.991228
vn 0.000000 -0.554700 -0.832050
vn -0.042118 -0.579857 -0.813629
vn -0.037106 -0.406950 -0.912696
vn 0.000000 -0.554700 -0.832050
vn 0.000000 -0.132164 -0.991228
vn 0.000000 -0.132164 -0.991228
vn 0.000000 -0.132164 -0.991228
vn 0.000000 -0.132164 -0.991228
vn 0.000000 -0.132164 -0.991228
vn 0.000000 -0.132164 -0.991228
vn 0.403217 -0.915102 -0.002146
vn 0.403217 -0.915102 0.002146
vn 0.182668 -0.501981 -0.845368
vn 0.291806 -0.696449 -0.655598
vn 0.029660 -0.000000 -0.999560
vn 0.182668 0.501981 -0.845368
vn 0.291806 0.696449 -0.655598
vn 0.403217 0.915102 0.002146
vn 0.403217 0.915102 -0.002146
vn 0.182668 0.501981 0.845368
vn 0.291806 0.696449 0.655598
vn 0.029660 -0.000000 0.999560
vn 0.182668 -0.501981 0.845368
vn 0.291806 -0.696449 0.655598
vn -0.403217 -0.915102 0.002146
vn -0.403217 -0.915102 -0.002146
vn -0.182668 -0.501981 0.845368
vn -0.291806 -0.696449 0.655598
vn -0.029660 -0.000000 0.999560
vn -0.182668 0.501981 0.845368
vn -0.291806 0.696449 0.655598
vn -0.403217 0.915102 -0.002146
vn -0.403217 0.915102 0.002146
vn -0.182668 0.501981 -0.845368
vn -0.291806 0.696449 -0.655598
vn -0.029660 -0.000000 -0.999560
vn -0.182668 -0.501981 -0.845368
vn -0.291806 -0.696449 -0.655598
vn 0.255878 -0.966350 -0.026354
vn 0.255878 -0.966350 0.026354
vn 0.050418 -0.976463 -0.209711
vn 0.050418 -0.976463 -0.209711
vn -0.495558 -0.591935 -0.635638
vn -0.495558 -0.591935 -0.635638
vn -0.495557 -0.591935 -0.635638
vn -0.495558 -0.591935 -0.635638
vn -0.495559 0.591932 -0.635640
vn -0.495559 0.591932 -0.635640
vn -0.495559 0.591932 -0.635640
vn -0.495559 0.591932 -0.635640
vn 0.050418 0.976463 -0.209711
vn 0.255878 0.966350 -0.026354
vn 0.050418 0.976463 -0.209711
vn 0.255878 0.966350 0.026354
vn 0.050418 0.976463 0.209711
vn 0.050418 0.976463 0.209711
vn -0.495558 0.591935 0.635638
vn -0.495558 0.591935 0.635638
vn -0.495558 0.591935 0.635638
vn -0.495558 0.591935 0.635638
vn -0.495559 -0.591932 0.635640
vn -0.495559 -0.591932 0.635640
vn -0.495559 -0.591932 0.635640
vn -0.495559 -0.591932 0.635640
vn 0.050418 -0.976463 0.209711
vn 0.050418 -0.976463 0.209711
vn -0.255878 -0.966350 0.026354
vn -0.255878 -0.966350 -0.026354
vn -0.050418 -0.976463 0.209711
vn -0.050418 -0.976463 0.209711
vn 0.495557 -0.591935 0.635638
vn 0.495557 -0.591935 0.635638
vn 0.495557 -0.591935 0.635638
vn 0.495557 -0.591935 0.635638
vn 0.495559 0.591932 0.635640
vn 0.495559 0.591932 0.635640
vn 0.495559 0.591932 0.635640
vn 0.495559 0.591932 0.635640
vn -0.050418 0.976463 0.209711
vn -0.255878 0.966350 0.026354
vn -0.050418 0.976463 0.209711
vn -0.255878 0.966350 -0.026354
vn -0.050418 0.976463 -0.209711
vn -0.050418 0.976463 -0.209711
vn 0.495558 0.591935 -0.635638
vn 0.495558 0.591935 -0.635638
vn 0.495558 0.591935 -0.635638
vn 0.495558 0.591935 -0.635638
vn 0.495559 -0.591932 -0.635640
vn 0.495559 -0.591932 -0.635640
vn 0.495559 -0.591932 -0.635640
vn 0.495559 -0.591932 -0.635640
vn -0.050418 -0.976463 -0.209711
vn -0.050418 -0.976463 -0.209711
s 1
g pCube1
usemtl initialShadingGroup
f 23/109/1 13/110/2 20/111/3 19/112/4
s 2
f 3/21/5 38/22/6 5/23/7
f 5/23/7 38/22/6 26/26/8
f 38/22/6 12/31/9 26/26/8
f 26/26/8 12/31/9 15/40/10
f 12/31/9 35/38/11 15/40/10
f 15/40/10 35/38/11 41/47/12
f 35/38/11 4/46/13 41/47/12
f 4/46/13 6/53/14 41/47/12
s 3
f 28/130/15 18/131/16 25/132/17 24/133/18
s 4
f 7/65/19 49/66/20 1/67/21
f 1/67/21 49/66/20 21/70/22
f 49/66/20 17/75/23 21/70/22
f 21/70/22 17/75/23 10/84/24
f 17/75/23 46/82/25 10/84/24
f 10/84/24 46/82/25 30/91/26
f 46/82/25 8/90/27 30/91/26
f 8/90/27 2/97/28 30/91/26
s 5
f 74/1/29 75/2/30 73/3/31
f 79/10/32 80/8/33 78/9/34
f 73/3/31 75/2/30 71/4/35
f 75/2/30 76/5/36 71/4/35
f 71/4/35 76/5/36 72/6/37
f 78/9/34 80/8/33 77/7/38
f 80/8/33 72/6/37 77/7/38
f 72/6/37 76/5/36 77/7/38
s 7
f 84/11/39 85/12/40 83/13/41
f 89/20/42 90/18/43 88/19/44
f 83/13/41 85/12/40 82/14/45
f 85/12/40 86/15/46 82/14/45
f 82/14/45 86/15/46 81/16/47
f 88/19/44 90/18/43 87/17/48
f 90/18/43 81/16/47 87/17/48
f 81/16/47 86/15/46 87/17/48
s off
f 22/85/49 10/84/50 30/91/51 29/92/52
s 9
f 32/121/53 11/125/54 34/126/55 33/123/56
s off
f 36/30/57 12/31/58 38/22/59 37/25/60
f 27/41/61 15/40/62 41/47/63 40/48/64
s 10
f 43/142/65 16/146/66 45/147/67 44/144/68
s off
f 47/74/69 17/75/70 49/66/71 48/69/72
s 1
f 20/76/3 1/67/73 21/70/74 19/77/75
s off
f 21/70/76 10/84/77 22/85/78 19/77/79
f 22/117/80 9/118/81 23/109/82 19/112/83
s 3
f 25/32/17 5/23/84 26/26/85 24/33/86
s off
f 26/26/87 15/40/88 27/41/89 24/33/90
f 27/138/91 14/139/92 28/130/93 24/133/94
s 9
f 30/91/95 2/97/96 31/98/97 29/92/98
f 31/124/97 11/125/54 32/121/99 29/122/100
s off
f 32/121/101 9/118/102 22/117/103 29/122/104
s 9
f 34/45/55 4/46/105 35/38/106 33/39/107
s off
f 35/38/108 12/31/109 36/30/110 33/39/111
f 36/120/112 9/118/113 32/121/114 33/123/115
s 1
f 38/22/116 3/21/117 39/24/118 37/25/119
f 39/113/118 13/110/2 23/109/120 37/114/121
s off
f 23/109/122 9/118/123 36/120/124 37/114/125
s 10
f 41/47/126 6/53/127 42/54/128 40/48/129
f 42/145/128 16/146/66 43/142/130 40/143/131
s off
f 43/142/132 14/139/133 27/138/134 40/143/135
s 10
f 45/89/67 8/90/136 46/82/137 44/83/138
s off
f 46/82/139 17/75/140 47/74/141 44/83/142
f 47/141/143 14/139/144 43/142/145 44/144/146
s 3
f 49/66/147 7/65/148 50/68/149 48/69/150
f 50/134/149 18/131/16 28/130/151 48/135/152
s off
f 28/130/153 14/139/154 47/141/155 48/135/156
s 4
f 2/97/28 8/90/27 51/96/157 52/101/158
s 10
f 8/90/136 45/89/67 53/95/159 51/96/160
f 45/147/67 16/146/66 54/149/161 53/150/159
f 16/146/66 42/145/128 55/148/162 54/149/161
f 42/54/128 6/53/127 56/57/163 55/58/162
s 2
f 6/53/14 4/46/13 57/52/164 56/57/165
s 9
f 4/46/105 34/45/55 58/51/166 57/52/167
f 34/126/55 11/125/54 59/128/168 58/129/166
f 11/125/54 31/124/97 60/127/169 59/128/168
f 31/98/97 2/97/96 52/101/170 60/102/169
s 4
f 7/65/19 1/67/21 62/71/171 61/72/172
s 1
f 1/67/73 20/76/3 63/78/173 62/71/174
f 20/111/3 13/110/2 64/115/175 63/116/173
f 13/110/2 39/113/118 65/119/176 64/115/175
f 39/24/118 3/21/117 66/28/177 65/29/176
s 2
f 3/21/5 5/23/7 67/27/178 66/28/179
s 3
f 5/23/84 25/32/17 68/34/180 67/27/181
f 25/132/17 18/131/16 69/136/182 68/137/180
f 18/131/16 50/134/149 70/140/183 69/136/182
f 50/68/149 7/65/148 61/72/184 70/73/183
s 4
f 52/101/158 51/96/157 71/100/185 72/105/186
f 51/96/157 53/95/187 73/99/188 71/100/185
s off
f 53/95/189 54/103/190 74/104/191 73/99/192
f 54/63/193 55/58/194 75/62/195 74/64/196
s 2
f 55/58/197 56/57/165 76/61/198 75/62/199
f 56/57/165 57/52/164 77/56/200 76/61/198
f 57/52/164 58/51/201 78/55/202 77/56/200
s off
f 58/51/203 59/59/204 79/60/205 78/55/206
f 59/107/207 60/102/208 80/106/209 79/108/210
s 4
f 60/102/211 52/101/158 72/105/186 80/106/212
f 61/72/172 62/71/171 82/79/213 81/80/214
f 62/71/171 63/78/215 83/86/216 82/79/213
s off
f 63/78/217 64/93/218 84/94/219 83/86/220
f 64/43/221 65/29/222 85/37/223 84/44/224
s 2
f 65/29/225 66/28/179 86/36/226 85/37/227
f 66/28/179 67/27/178 87/35/228 86/36/226
f 67/27/178 68/34/229 88/42/230 87/35/228
s off
f 68/34/231 69/49/232 89/50/233 88/42/234
f 69/87/235 70/73/236 90/81/237 89/88/238
s 4
f 70/73/239 61/72/172 81/80/214 90/81/240
