# This file uses centimeters as units for non-parametric coordinates.

mtllib Straw1.mtl
g default
v 0.405436 -10.000000 -0.195248
v 0.280570 -10.000000 -0.351824
v 0.100134 -10.000000 -0.438717
v -0.100134 -10.000000 -0.438718
v -0.280570 -10.000000 -0.351824
v -0.405436 -10.000000 -0.195248
v -0.450000 -10.000000 -0.000000
v -0.405436 -10.000000 0.195248
v -0.280570 -10.000000 0.351824
v -0.100134 -10.000000 0.438717
v 0.100134 -10.000000 0.438718
v 0.280570 -10.000000 0.351824
v 0.405436 -10.000000 0.195248
v 0.450000 -10.000000 0.000000
v 0.405436 10.000000 -0.195248
v 0.280570 10.000000 -0.351824
v 0.100134 10.000000 -0.438717
v -0.100134 10.000000 -0.438718
v -0.280570 10.000000 -0.351824
v -0.405436 10.000000 -0.195248
v -0.450000 10.000000 -0.000000
v -0.405436 10.000000 0.195248
v -0.280570 10.000000 0.351824
v -0.100134 10.000000 0.438717
v 0.100134 10.000000 0.438718
v 0.280570 10.000000 0.351824
v 0.405436 10.000000 0.195248
v 0.450000 10.000000 0.000000
v 0.000000 -10.000000 0.000000
v 0.000000 10.000000 0.000000
vt 0.085369 0.001992
vt 0.095092 0.001992
vt 0.095092 0.998008
vt 0.085369 0.998008
vt 0.104816 0.001992
vt 0.104816 0.998008
vt 0.077571 0.001992
vt 0.077571 0.998008
vt 0.112614 0.001992
vt 0.112614 0.998008
vt 0.008295 0.001992
vt 0.018019 0.001992
vt 0.018019 0.998008
vt 0.008295 0.998008
vt 0.027743 0.001992
vt 0.027743 0.998008
vt 0.000498 0.001992
vt 0.000498 0.998008
vt 0.035540 0.001992
vt 0.035540 0.998008
vt 0.158789 0.010430
vt 0.166587 0.004211
vt 0.176310 0.024402
vt 0.176310 0.001992
vt 0.154462 0.019416
vt 0.186034 0.004211
vt 0.154462 0.029389
vt 0.193831 0.010430
vt 0.158789 0.038375
vt 0.198159 0.019416
vt 0.166587 0.044593
vt 0.198159 0.029389
vt 0.176310 0.046813
vt 0.193831 0.038375
vt 0.186034 0.044593
vt 0.237294 0.004211
vt 0.245092 0.010430
vt 0.227570 0.024402
vt 0.249419 0.019416
vt 0.227570 0.001992
vt 0.249419 0.029389
vt 0.217847 0.004211
vt 0.245092 0.038375
vt 0.210049 0.010430
vt 0.237294 0.044594
vt 0.205722 0.019416
vt 0.227570 0.046813
vt 0.205722 0.029389
vt 0.217847 0.044594
vt 0.210049 0.038375
vt 0.070733 0.998008
vt 0.061747 0.998008
vt 0.061747 0.001992
vt 0.070733 0.001992
vt 0.051773 0.998008
vt 0.051773 0.001992
vt 0.042788 0.998008
vt 0.042788 0.001992
vt 0.119678 0.001992
vt 0.128664 0.001992
vt 0.128664 0.998008
vt 0.119678 0.998008
vt 0.138637 0.001992
vt 0.138637 0.998008
vt 0.147623 0.001992
vt 0.147623 0.998008
vn 0.900969 0.000000 -0.433884
vn 0.623490 0.000000 -0.781831
vn 0.623490 0.000000 -0.781831
vn 0.900969 0.000000 -0.433884
vn 0.222521 0.000000 -0.974928
vn 0.222521 0.000000 -0.974928
vn -0.222521 0.000000 -0.974928
vn -0.222521 0.000000 -0.974928
vn -0.623490 0.000000 -0.781832
vn -0.623490 0.000000 -0.781832
vn -0.900969 0.000000 -0.433884
vn -0.900969 0.000000 -0.433884
vn -1.000000 0.000000 -0.000000
vn -1.000000 0.000000 -0.000000
vn -0.900969 0.000000 0.433884
vn -0.900969 0.000000 0.433884
vn -0.623490 0.000000 0.781831
vn -0.623490 0.000000 0.781831
vn -0.222521 0.000000 0.974928
vn -0.222521 0.000000 0.974928
vn 0.222521 0.000000 0.974928
vn 0.222521 0.000000 0.974928
vn 0.623490 0.000000 0.781832
vn 0.623490 0.000000 0.781832
vn 0.900969 0.000000 0.433884
vn 0.900969 0.000000 0.433884
vn 1.000000 0.000000 0.000000
vn 1.000000 0.000000 0.000000
vn 0.000000 -1.000000 0.000003
vn 0.000000 -1.000000 -0.000003
vn 0.000000 -1.000000 -0.000000
vn 0.000000 -1.000000 -0.000003
vn 0.000000 -1.000000 -0.000000
vn 0.000000 -1.000000 0.000003
vn 0.000000 -1.000000 0.000005
vn 0.000000 -1.000000 0.000000
vn 0.000000 -1.000000 -0.000003
vn 0.000000 -1.000000 0.000001
vn 0.000000 -1.000000 -0.000001
vn 0.000000 -1.000000 0.000000
vn 0.000000 -1.000000 0.000000
vn 0.000000 -1.000000 0.000000
vn 0.000000 -1.000000 -0.000005
vn 0.000000 1.000000 -0.000000
vn 0.000000 1.000000 0.000005
vn 0.000000 1.000000 0.000001
vn 0.000000 1.000000 -0.000003
vn 0.000000 1.000000 -0.000001
vn 0.000000 1.000000 -0.000001
vn 0.000000 1.000000 0.000003
vn 0.000000 1.000000 -0.000000
vn 0.000000 1.000000 -0.000000
vn 0.000000 1.000000 0.000005
vn 0.000000 1.000000 0.000000
vn 0.000000 1.000000 0.000000
vn 0.000000 1.000000 0.000003
vn 0.000000 1.000000 0.000003
vn 0.000000 1.000000 -0.000005
s 1
g pCylinder1
usemtl initialShadingGroup
f 1/15/1 2/19/2 16/20/3 15/16/4
f 2/51/2 3/52/5 17/53/6 16/54/3
f 3/52/5 4/55/7 18/56/8 17/53/6
f 4/55/7 5/57/9 19/58/10 18/56/8
f 5/7/9 6/1/11 20/4/12 19/8/10
f 6/1/11 7/2/13 21/3/14 20/4/12
f 7/2/13 8/5/15 22/6/16 21/3/14
f 8/5/15 9/9/17 23/10/18 22/6/16
f 9/59/17 10/60/19 24/61/20 23/62/18
f 10/60/19 11/63/21 25/64/22 24/61/20
f 11/63/21 12/65/23 26/66/24 25/64/22
f 12/17/23 13/11/25 27/14/26 26/18/24
f 13/11/25 14/12/27 28/13/28 27/14/26
f 14/12/27 1/15/1 15/16/4 28/13/28
s 2
f 2/21/29 1/22/30 29/23/31
f 3/25/32 2/21/29 29/23/31
f 4/27/33 3/25/32 29/23/31
f 5/29/34 4/27/33 29/23/31
f 6/31/35 5/29/34 29/23/31
f 7/33/36 6/31/35 29/23/31
f 8/35/37 7/33/36 29/23/31
f 9/34/38 8/35/37 29/23/31
f 10/32/39 9/34/38 29/23/31
f 11/30/40 10/32/39 29/23/31
f 12/28/41 11/30/40 29/23/31
f 13/26/42 12/28/41 29/23/31
f 14/24/43 13/26/42 29/23/31
f 1/22/30 14/24/43 29/23/31
s 3
f 15/36/44 16/37/45 30/38/46
f 16/37/45 17/39/47 30/38/46
f 17/39/47 18/41/48 30/38/46
f 18/41/48 19/43/49 30/38/46
f 19/43/49 20/45/50 30/38/46
f 20/45/50 21/47/51 30/38/46
f 21/47/51 22/49/52 30/38/46
f 22/49/52 23/50/53 30/38/46
f 23/50/53 24/48/54 30/38/46
f 24/48/54 25/46/55 30/38/46
f 25/46/55 26/44/56 30/38/46
f 26/44/56 27/42/57 30/38/46
f 27/42/57 28/40/58 30/38/46
f 28/40/58 15/36/44 30/38/46
